<?xml version="1.0" encoding="UTF-8"?>
<svg version="1.1" xmlns="http://www.w3.org/2000/svg" width="512" height="512">
<path d="M0 0 C3.36660627 1.59036002 6.131512 3.6431261 9 6 C10.5159375 7.175625 10.5159375 7.175625 12.0625 8.375 C13.0215625 9.179375 13.0215625 9.179375 14 10 C18.31347185 8.69288732 21.01017136 6.43402184 24.25390625 3.4375 C28.74849252 -0.26274105 32.69209573 -0.4479191 38.37890625 -0.296875 C42.18876835 0.1346444 43.57900119 1.00935441 46 4 C49.46796901 9.75621836 51.66201049 15.43168784 53 22 C53.76183594 21.77183594 54.52367187 21.54367188 55.30859375 21.30859375 C63.44348285 19.04382438 69.38346588 18.37566392 77.375 21.1875 C81.19935935 23.82812908 82.36543288 26.52076101 83.50390625 30.96875 C84.65831051 37.67644633 82.92388784 43.57617112 81 50 C81.721875 50.12761719 82.44375 50.25523438 83.1875 50.38671875 C91.08487438 52.10878511 98.40799086 55.1119863 103 62 C104.01623737 67.96062301 103.62692038 72.79256427 100.25 77.875 C99.19290133 79.27027005 98.11128219 80.64748826 97 82 C96.21625 83.010625 95.4325 84.02125 94.625 85.0625 C94.08875 85.701875 93.5525 86.34125 93 87 C94.30711268 91.31347185 96.56597816 94.01017136 99.5625 97.25390625 C103.22853664 101.70694532 103.52011468 105.67026719 103.34765625 111.31640625 C102.95735767 114.32916047 102.22050217 116.46945569 100.03125 118.65234375 C94.72185393 122.17492383 87.40363309 126 81 126 C81.22816406 126.76183594 81.45632813 127.52367188 81.69140625 128.30859375 C83.95617562 136.44348285 84.62433608 142.38346588 81.8125 150.375 C79.1069169 154.29343069 76.36719457 155.46426649 71.7734375 156.50390625 C64.99971781 157.52534017 59.42856186 156.16322329 53 154 C52.87238281 154.721875 52.74476563 155.44375 52.61328125 156.1875 C50.89121489 164.08487438 47.8880137 171.40799086 41 176 C38.546875 176.3359375 38.546875 176.3359375 35.75 176.375 C34.83734375 176.40335938 33.9246875 176.43171875 32.984375 176.4609375 C30 176 30 176 23 172 C23 197.74 23 223.48 23 250 C25.64 248.68 28.28 247.36 31 246 C31.66 246 32.32 246 33 246 C32.68546875 245.27941406 32.3709375 244.55882812 32.046875 243.81640625 C28.15242306 233.339168 30.02333795 221.74822137 34.5625 211.8125 C41.48948198 198.93606634 52.26016836 192.27355652 65.890625 188.13671875 C76.43412283 185.12895733 86.8508103 183.73447536 97.8125 183.5625 C98.66674561 183.54018311 99.52099121 183.51786621 100.40112305 183.49487305 C104.02843739 183.50835207 106.36158377 183.63575025 109.546875 185.453125 C111.75051197 189.31541344 111.55174134 192.81457261 111.4375 197.1875 C111.42356201 198.07590576 111.40962402 198.96431152 111.39526367 199.87963867 C110.94009603 216.5043775 107.88349758 235.8674186 97 249 C96.42636719 249.69609375 95.85273438 250.3921875 95.26171875 251.109375 C89.11971843 257.8744768 80.25844649 263.36513769 70.97631836 264.17700195 C68.62967686 264.24430935 66.28503799 264.29039856 63.9375 264.3125 C62.64888062 264.33098999 62.64888062 264.33098999 61.33422852 264.34985352 C56.33412462 264.32292806 52.91283064 263.85697563 48.4375 261.4375 C45.56539153 260.1059687 43.86959652 259.7221905 40.828125 260.69384766 C35.92399159 262.80875519 31.28617156 265.37283661 26.70483398 268.11035156 C25 269 25 269 23 269 C23 269.99 23 270.98 23 272 C23.63537563 271.99631283 24.27075127 271.99262566 24.92538071 271.98882675 C40.38206261 271.90050775 55.83865681 271.83430615 71.29552841 271.79275131 C78.77035328 271.77212179 86.24500977 271.74399399 93.71972656 271.69824219 C100.2343387 271.65838606 106.74882891 271.63257001 113.26355958 271.62364602 C116.71345504 271.6184291 120.16300164 271.60616006 123.61278534 271.57707977 C127.46295229 271.54488736 131.31277726 271.54403981 135.16308594 271.54589844 C136.30819641 271.53151733 137.45330688 271.51713623 138.63311768 271.50231934 C139.68197144 271.50781799 140.7308252 271.51331665 141.8114624 271.51898193 C142.72219387 271.51529476 143.63292534 271.51160759 144.57125473 271.50780869 C147.78063584 272.15819781 148.97933612 273.47788215 151 276 C151.50793457 278.58007812 151.50793457 278.58007812 151.51757812 281.53125 C151.53018677 282.63919922 151.54279541 283.74714844 151.55578613 284.88867188 C151.54364075 286.6762793 151.54364075 286.6762793 151.53125 288.5 C151.5350769 289.72783203 151.53890381 290.95566406 151.54284668 292.22070312 C151.54556842 294.81641459 151.53818911 297.41215336 151.52148438 300.0078125 C151.50008075 303.98499599 151.52127963 307.96037282 151.546875 311.9375 C151.54423177 314.45833733 151.53910691 316.97917353 151.53125 319.5 C151.53934692 320.69173828 151.54744385 321.88347656 151.55578613 323.11132812 C151.54317749 324.21927734 151.53056885 325.32722656 151.51757812 326.46875 C151.51439575 327.44263672 151.51121338 328.41652344 151.50793457 329.41992188 C150.83577701 332.8341786 149.82915402 333.99664439 147 336 C143.984375 336.390625 143.984375 336.390625 140.75 336.25 C139.67234375 336.21390625 138.5946875 336.1778125 137.484375 336.140625 C136.66453125 336.09421875 135.8446875 336.0478125 135 336 C134.94054199 336.76506363 134.88108398 337.53012726 134.81982422 338.31837463 C132.49506465 368.01565295 129.87909346 397.68800338 127.21549988 427.35649681 C126.46356807 435.73416654 125.71987888 444.11248564 124.98641109 452.49179262 C124.46231183 458.47127284 123.92892269 464.44988103 123.38864994 470.42792135 C123.06893968 473.96833506 122.75327961 477.50899621 122.44784546 481.05067253 C122.11010682 484.9646339 121.7531775 488.87671459 121.39453125 492.78881836 C121.2494664 494.52071411 121.2494664 494.52071411 121.10147095 496.28759766 C120.5844178 501.75505356 120.13357022 506.31484863 117 511 C113.89363348 512.55318326 110.60353204 512.14798785 107.19363403 512.14717102 C106.37803697 512.15084771 105.56243992 512.1545244 104.7221278 512.1583125 C101.97376252 512.16937531 99.22543502 512.17319754 96.47705078 512.17700195 C94.51282632 512.18326455 92.54860306 512.18991116 90.5843811 512.19691467 C85.23729818 512.21434115 79.89022421 512.2248805 74.54311991 512.2331202 C71.20527776 512.23826589 67.86743841 512.24434175 64.52959824 512.25063133 C54.09435445 512.2696863 43.65911776 512.2839179 33.22385991 512.2922433 C21.16266907 512.30202386 9.10166136 512.32836352 -2.95946491 512.36874419 C-12.27244345 512.39885848 -21.58536935 512.41370764 -30.89839566 512.41702431 C-36.46535489 512.41937978 -42.03211855 512.42840483 -47.59902573 512.45348549 C-52.83406873 512.47668988 -58.06878633 512.48103029 -63.30386734 512.47072411 C-65.22759328 512.4702268 -67.15133482 512.47660418 -69.07501221 512.49028015 C-71.69695829 512.50788071 -74.31772146 512.50095197 -76.93966675 512.48774719 C-78.08742783 512.50420106 -78.08742783 512.50420106 -79.258376 512.52098733 C-82.7202706 512.4787557 -84.6414329 512.27069242 -87.44127083 510.1570158 C-90.13104191 506.43483056 -90.28385513 502.87460862 -90.68971252 498.40211487 C-90.75182023 497.72858772 -90.81392794 497.05506057 -90.87791771 496.3611235 C-91.08554014 494.0998538 -91.28799448 491.83815119 -91.49047852 489.57641602 C-91.63810271 487.95684069 -91.78603916 486.3372938 -91.93426514 484.71777344 C-92.33626166 480.31522614 -92.73374107 475.91228146 -93.13033032 471.5092442 C-93.54569725 466.90511268 -93.96485986 462.30132664 -94.38352966 457.69749451 C-95.08618975 449.96448526 -95.78605359 442.23122695 -96.48413086 434.49780273 C-97.29150729 425.55377823 -98.10264975 416.61010174 -98.91596085 407.66661507 C-99.69780134 399.06881058 -100.4775803 390.47082051 -101.25620842 381.87272453 C-101.58778224 378.21128204 -101.91996984 374.54989599 -102.25262642 370.88855171 C-102.64420993 366.57711667 -103.03395436 362.26551916 -103.42227173 357.95378876 C-103.56516563 356.37026606 -103.70867053 354.78679837 -103.85282707 353.20339012 C-104.04931087 351.0440297 -104.2435782 348.88448106 -104.43727112 346.72486877 C-104.60124563 344.91109411 -104.60124563 344.91109411 -104.76853275 343.06067753 C-105 340 -105 340 -105 336 C-105.81984375 336.04640625 -106.6396875 336.0928125 -107.484375 336.140625 C-108.56203125 336.17671875 -109.6396875 336.2128125 -110.75 336.25 C-111.81734375 336.29640625 -112.8846875 336.3428125 -113.984375 336.390625 C-117.76445991 335.9009767 -118.65838229 334.94791145 -121 332 C-121.50793457 329.41992188 -121.50793457 329.41992188 -121.51757812 326.46875 C-121.53018677 325.36080078 -121.54279541 324.25285156 -121.55578613 323.11132812 C-121.54768921 321.91958984 -121.53959229 320.72785156 -121.53125 319.5 C-121.5350769 318.27216797 -121.53890381 317.04433594 -121.54284668 315.77929688 C-121.54556842 313.18358541 -121.53818911 310.58784664 -121.52148438 307.9921875 C-121.50008075 304.01500401 -121.52127963 300.03962718 -121.546875 296.0625 C-121.54423177 293.54166267 -121.53910691 291.02082647 -121.53125 288.5 C-121.54339539 286.71239258 -121.54339539 286.71239258 -121.55578613 284.88867188 C-121.53687317 283.22674805 -121.53687317 283.22674805 -121.51757812 281.53125 C-121.51439575 280.55736328 -121.51121338 279.58347656 -121.50793457 278.58007812 C-120.84331529 275.20411248 -119.64517691 274.15626978 -117 272 C-114.57125473 271.50780869 -114.57125473 271.50780869 -111.8114624 271.51898193 C-110.23818176 271.51073395 -110.23818176 271.51073395 -108.63311768 271.50231934 C-107.4880072 271.51670044 -106.34289673 271.53108154 -105.16308594 271.54589844 C-103.95305908 271.54531433 -102.74303223 271.54473022 -101.49633789 271.54412842 C-98.18223933 271.54643698 -94.86913871 271.56648922 -91.55521679 271.59442425 C-88.09057241 271.61943777 -84.62591459 271.62177984 -81.16119385 271.62652588 C-74.60216181 271.63895588 -68.04339661 271.67177755 -61.48448205 271.71192384 C-54.01661264 271.75664101 -46.54873045 271.77862841 -39.08076048 271.79870558 C-23.72035247 271.84051037 -8.36021065 271.91086259 7 272 C7 271.01 7 270.02 7 269 C6.15953125 268.74992187 5.3190625 268.49984375 4.453125 268.2421875 C1.32429761 267.11665909 -1.43870086 265.72070762 -4.35058594 264.13110352 C-10.13666021 260.87124578 -10.13666021 260.87124578 -16.53125 260.43359375 C-18.06319324 261.21305078 -19.58223229 262.01821318 -21.08984375 262.84375 C-29.73276488 266.27771598 -41.4546838 264.99976429 -50.0625 262.0625 C-61.89651539 256.76436301 -70.06719719 246.74476858 -75 235 C-79.25345549 222.63428405 -81.14591011 210.46523425 -81.375 197.4375 C-81.40110352 196.56786621 -81.42720703 195.69823242 -81.45410156 194.80224609 C-81.46422291 191.11012169 -81.38867467 188.68725224 -79.55078125 185.4375 C-75.68302457 183.25781477 -72.18007068 183.44839861 -67.8125 183.5625 C-66.92409424 183.57643799 -66.03568848 183.59037598 -65.12036133 183.60473633 C-47.64931812 184.08307489 -28.6637989 187.47661404 -15 199 C-14.34386719 199.54527344 -13.68773437 200.09054688 -13.01171875 200.65234375 C-8.18969498 205.04069514 -5.5411076 210.05081867 -3 216 C-2.5875 216.94875 -2.175 217.8975 -1.75 218.875 C0.36750981 227.69795755 1.18163303 237.63673395 -3 246 C-2.0925 246.28875 -1.185 246.5775 -0.25 246.875 C3 248 3 248 7 250 C6.67 224.59 6.34 199.18 6 173 C3.69 173.99 1.38 174.98 -1 176 C-5.90755648 176.86476766 -9.77634814 176.61182593 -14.25 174.375 C-18.74588498 169.95618733 -20.97955126 162.83207543 -23 157 C-23 156.01 -23 155.02 -23 154 C-23.76183594 154.22816406 -24.52367187 154.45632812 -25.30859375 154.69140625 C-33.44348285 156.95617562 -39.38346588 157.62433608 -47.375 154.8125 C-51.29343069 152.1069169 -52.46426649 149.36719457 -53.50390625 144.7734375 C-54.52534017 137.99971781 -53.16322329 132.42856186 -51 126 C-51.68964844 125.85304688 -52.37929687 125.70609375 -53.08984375 125.5546875 C-60.98382699 123.67052689 -68.34564706 120.98152941 -73 114 C-74.72205888 108.43642517 -73.54496034 104.06575966 -71 99 C-68.51819733 95.49714072 -65.83304087 92.22334104 -63 89 C-64.2278436 85.55849608 -65.51699614 83.11293666 -68 80.4375 C-72.68561396 75.36532289 -73.47887448 71.473374 -73.296875 64.62109375 C-72.8653556 60.81123165 -71.99064559 59.42099881 -69 57 C-63.24378164 53.53203099 -57.56831216 51.33798951 -51 50 C-51.34224609 48.98292969 -51.34224609 48.98292969 -51.69140625 47.9453125 C-54.1820589 39.88140572 -54.58190695 33.57920433 -51.8125 25.5625 C-48.75105752 21.23425373 -44.93748141 19.99626039 -39.875 19.125 C-34.00615223 18.59329242 -28.57576436 20.33010103 -23 22 C-22.85304688 21.31035156 -22.70609375 20.62070312 -22.5546875 19.91015625 C-19.51136136 7.15966914 -14.34778535 -2.22505762 0 0 Z M-4 19 C-4.32871094 19.96099609 -4.32871094 19.96099609 -4.6640625 20.94140625 C-6.81741568 26.81498343 -9.07463522 31.95837292 -14 36 C-21.26760599 39.03918069 -28.41278554 38.06487221 -36 37 C-35.90460938 38.00160156 -35.80921875 39.00320312 -35.7109375 40.03515625 C-35.59828923 41.37754819 -35.48634782 42.71999957 -35.375 44.0625 C-35.20097656 46.02896484 -35.20097656 46.02896484 -35.0234375 48.03515625 C-34.9952118 52.81000352 -35.47174248 56.93772068 -38.375 60.85546875 C-43.16575341 64.7825046 -48.15507406 67.00072956 -54 69 C-52.85378301 71.42488571 -51.83136374 73.19583566 -50.0625 75.25 C-46.5173517 79.9768644 -45 84.06916873 -45 90 C-46.06289969 95.98766827 -49.66608956 100.88151785 -54 105 C-53.67 105.99 -53.34 106.98 -53 108 C-51.13052987 108.80791175 -51.13052987 108.80791175 -48.875 109.3125 C-43.91578884 110.83901954 -40.32297416 112.96900577 -37 117 C-33.9424394 124.31155796 -35.0147047 131.37775559 -36 139 C-34.26363281 138.83951172 -34.26363281 138.83951172 -32.4921875 138.67578125 C-30.95319604 138.55378802 -29.41412909 138.43274446 -27.875 138.3125 C-27.11445313 138.23966797 -26.35390625 138.16683594 -25.5703125 138.09179688 C-20.53631899 137.72292666 -17.35112621 138.12067276 -13 141 C-8.37768557 145.54175121 -5.95615673 150.91417906 -4 157 C-1.56450657 155.91755848 0.21580961 154.81416395 2.25 153.0625 C6.9768644 149.5173517 11.06916873 148 17 148 C22.98766827 149.06289969 27.88151785 152.66608956 32 157 C32.99 156.67 33.98 156.34 35 156 C35.80791175 154.13052987 35.80791175 154.13052987 36.3125 151.875 C37.83901954 146.91578884 39.96900577 143.32297416 44 140 C51.26760599 136.96081931 58.41278554 137.93512779 66 139 C65.90460938 137.99839844 65.80921875 136.99679688 65.7109375 135.96484375 C65.59828923 134.62245181 65.48634782 133.28000043 65.375 131.9375 C65.25898438 130.62652344 65.14296875 129.31554687 65.0234375 127.96484375 C64.9952118 123.18999648 65.47174248 119.06227932 68.375 115.14453125 C73.16575341 111.2174954 78.15507406 108.99927044 84 107 C82.85378301 104.57511429 81.83136374 102.80416434 80.0625 100.75 C76.5173517 96.0231356 75 91.93083127 75 86 C76.06289969 80.01233173 79.66608956 75.11848215 84 71 C83.67 70.01 83.34 69.02 83 68 C81.13052987 67.19208825 81.13052987 67.19208825 78.875 66.6875 C73.91578884 65.16098046 70.32297416 63.03099423 67 59 C63.96081931 51.73239401 64.93512779 44.58721446 66 37 C64.49759766 37.14308594 64.49759766 37.14308594 62.96484375 37.2890625 C61.62245181 37.40171077 60.28000043 37.51365218 58.9375 37.625 C57.62652344 37.74101563 56.31554687 37.85703125 54.96484375 37.9765625 C50.18999648 38.0047882 46.06227932 37.52825752 42.14453125 34.625 C38.2174954 29.83424659 35.99927044 24.84492594 34 19 C31.57511429 20.14621699 29.80416434 21.16863626 27.75 22.9375 C23.0231356 26.4826483 18.93083127 28 13 28 C7.74053278 27.06636677 3.07919028 24.15507313 -0.60546875 20.3359375 C-1.91884192 18.76940882 -1.91884192 18.76940882 -4 19 Z M-49 203 C-43.33425951 209.92810724 -36.96966361 216.14204142 -30.625 222.4375 C-29.49586045 223.56161467 -28.36695222 224.68596174 -27.23828125 225.81054688 C-24.49484812 228.54305235 -21.74830015 231.27239009 -19 234 C-18.34 233.67 -17.68 233.34 -17 233 C-18.00168492 223.76032012 -20.60426799 216.33582656 -27.9375 210.25 C-33.27183534 206.78630262 -42.51533427 203 -49 203 Z M71.89599609 204.3840332 C62.5892844 207.50838109 55.07582566 210.8367417 49.96484375 219.69921875 C48.17780716 223.9606137 47.56196911 228.43714636 47 233 C49.90560398 233.3008152 49.90560398 233.3008152 51.4617157 231.89904785 C51.97023575 231.38386597 52.4787558 230.86868408 53.00268555 230.33789062 C53.58306076 229.75728882 54.16343597 229.17668701 54.76139832 228.57849121 C55.38025406 227.94415161 55.9991098 227.30981201 56.63671875 226.65625 C57.27615921 226.0125647 57.91559967 225.36887939 58.57441711 224.70568848 C60.61924143 222.64404404 62.65340245 220.57222339 64.6875 218.5 C66.07027471 217.10218283 67.45372991 215.70503847 68.83789062 214.30859375 C72.23321183 210.88015899 75.61900414 207.44256036 79 204 C76.27800419 202.6390021 74.68851928 203.50784244 71.89599609 204.3840332 Z M-62 216 C-59.84712845 226.18675805 -57.44197615 236.22538433 -48.81640625 242.8203125 C-43.37496566 246.35432338 -38.32358501 247.44529956 -32 248 C-31.70036181 245.09595325 -31.70036181 245.09595325 -33.09422302 243.5382843 C-33.6063887 243.02976425 -34.11855438 242.5212442 -34.64624023 241.99731445 C-35.22361435 241.41693924 -35.80098846 240.83656403 -36.39585876 240.23860168 C-37.02706131 239.61974594 -37.65826385 239.0008902 -38.30859375 238.36328125 C-38.94990738 237.72384079 -39.59122101 237.08440033 -40.25196838 236.42558289 C-41.60955752 235.07472067 -42.97074179 233.72746341 -44.33520508 232.38354492 C-46.43246248 230.31746264 -48.51884144 228.24088005 -50.60351562 226.16210938 C-51.92125333 224.85354035 -53.23959243 223.54557659 -54.55859375 222.23828125 C-55.18777206 221.61335281 -55.81695038 220.98842438 -56.4651947 220.34455872 C-58.86255598 217.39595748 -58.86255598 217.39595748 -62 216 Z M88.13256836 218.75390625 C86.86575887 220.02087507 85.6017212 221.29061889 84.33984375 222.5625 C83.67537735 223.22838135 83.01091095 223.8942627 82.3263092 224.58032227 C80.19435988 226.717891 78.06590451 228.85890218 75.9375 231 C74.49697277 232.44553973 73.05622056 233.89085528 71.61523438 235.3359375 C68.07420227 238.88802435 64.53630099 242.44320328 61 246 C61.33 246.66 61.66 247.32 62 248 C71.08006612 247.015619 77.85031536 244.56931567 84.0859375 237.703125 C86.18256739 234.74217014 87.41973533 231.95786973 88.6875 228.5625 C89.10386719 227.47066406 89.52023437 226.37882813 89.94921875 225.25390625 C90.94816281 222.16052184 91.55864828 219.21556255 92 216 C90.45759057 215.88455247 90.45759057 215.88455247 88.13256836 218.75390625 Z M-105 288 C-105 298.56 -105 309.12 -105 320 C-25.8 320 53.4 320 135 320 C135 309.44 135 298.88 135 288 C55.8 288 -23.4 288 -105 288 Z M-88 336 C-87.64372094 344.12999366 -87.64372094 344.12999366 -86 352 C-19.34 352 47.32 352 116 352 C117.69967317 346.90098049 117.58776871 341.35900683 118 336 C50.02 336 -17.96 336 -88 336 Z M-85 368 C-81.12554484 413.18316536 -81.12554484 413.18316536 -77.11425781 458.35400391 C-76.79640904 461.85592423 -76.48288734 465.35822141 -76.1699791 468.86058617 C-75.91988058 471.6522233 -75.66698879 474.44360204 -75.41327667 477.23491287 C-75.24016169 479.14702167 -75.0699512 481.05939275 -74.89984131 482.97177124 C-74.79593079 484.10563263 -74.69202026 485.23949402 -74.58496094 486.40771484 C-74.49567322 487.39637543 -74.4063855 488.38503601 -74.31439209 489.40365601 C-74.0231097 492.25933046 -74.0231097 492.25933046 -73 496 C-14.92 496 43.16 496 103 496 C104.19175048 487.06187138 105.34710958 478.21315394 106.14501953 469.24707031 C106.29176117 467.64167389 106.29176117 467.64167389 106.44146729 466.00384521 C106.7583072 462.52887511 107.07066518 459.05351949 107.3828125 455.578125 C107.603919 453.14050172 107.82526711 450.70290035 108.04684448 448.26531982 C108.5076206 443.18909787 108.96631527 438.11269388 109.42333984 433.03613281 C110.00979877 426.52242526 110.60026617 420.00908892 111.19211006 413.49586868 C111.64789536 408.47753996 112.10223203 403.459081 112.55605698 398.44057465 C112.77345667 396.03710973 112.99116021 393.63367229 113.2091713 391.23026276 C113.51208606 387.88702984 113.81320415 384.54364016 114.11376953 381.20019531 C114.20413483 380.20596558 114.29450012 379.21173584 114.38760376 378.18737793 C114.46885498 377.27937439 114.5501062 376.37137085 114.63381958 375.43585205 C114.74053828 374.2524568 114.74053828 374.2524568 114.84941292 373.04515457 C114.97296045 371.36722976 115 369.68246714 115 368 C49 368 -17 368 -85 368 Z " fill="#000000" transform="translate(241,0)"/>
<path d="M0 0 C8.80288754 6.34043826 15.4186507 14.72648904 17.58203125 25.4921875 C18.92007691 37.90936834 17.85729499 48.88109459 10.39453125 59.2421875 C3.58210875 67.3274193 -4.72289951 73.55522767 -15.48876953 74.71533203 C-28.40007937 75.61089799 -39.16843729 74.04490094 -49.3515625 65.46484375 C-57.86959925 57.33325857 -62.42046403 48.68416257 -62.88867188 36.85693359 C-63.04371176 24.34263074 -60.22647828 14.71931927 -51.41796875 5.4921875 C-37.63784493 -7.66275112 -16.31305228 -10.17259803 0 0 Z M-41.97265625 21.39453125 C-46.0977477 27.38148831 -46.13405017 33.44153962 -45.41796875 40.4921875 C-43.64454442 47.13691664 -38.97130405 51.66586709 -33.41796875 55.4921875 C-27.41909871 58.43281007 -20.53513345 58.59102538 -14.10546875 56.875 C-7.97664014 54.16969675 -3.17844083 49.08355055 -0.24609375 43.1015625 C1.69562739 36.98330909 1.64185035 29.90525368 -1.10546875 24.0546875 C-4.41170899 18.47107199 -9.15015755 13.55934922 -15.41796875 11.4921875 C-27.25601609 9.99542289 -34.32970758 12.45405874 -41.97265625 21.39453125 Z " fill="#000000" transform="translate(278.41796875,53.5078125)"/>
<path d="M0 0 C2.5 1.9375 2.5 1.9375 5 5 C5.57105469 5.58523437 6.14210938 6.17046875 6.73046875 6.7734375 C13.38242234 13.7042155 18.20973985 21.73137973 23 30 C23.57621094 30.97324219 24.15242188 31.94648438 24.74609375 32.94921875 C29.06605442 41.13633968 29.43726392 49.96991505 27.30078125 58.93359375 C24.11628086 67.76151256 18.39627526 73.87903402 10 78 C1.68445171 81.34736054 -9.09895732 81.49520007 -17.5625 78.375 C-26.12705452 74.26516343 -31.62512954 67.99571169 -35.109375 59.19921875 C-37.56199792 50.38913906 -37.01396549 41.02394318 -32.734375 32.93359375 C-31.87585938 31.48146484 -31.87585938 31.48146484 -31 30 C-30.65646484 29.40074707 -30.31292969 28.80149414 -29.95898438 28.18408203 C-12.51824194 -2.0661176 -12.51824194 -2.0661176 0 0 Z M-5 22 C-6.71929717 24.13264736 -8.31068371 26.25743478 -9.875 28.5 C-10.32536621 29.14348389 -10.77573242 29.78696777 -11.23974609 30.44995117 C-18.4073034 40.75651211 -18.4073034 40.75651211 -19 53 C-16.63619663 57.81852225 -13.83763525 60.67076821 -9 63 C-4.00552411 63.7971639 -0.20270239 63.57907893 4.375 61.375 C8.48644582 57.65512045 11.18172454 54.4541877 11.625 48.8125 C11.13294093 39.0205245 3.1558809 29.16799645 -3 22 C-3.66 22 -4.32 22 -5 22 Z " fill="#000000" transform="translate(452,200)"/>
<path d="M0 0 C2.5 1.9375 2.5 1.9375 5 5 C5.57105469 5.58523437 6.14210937 6.17046875 6.73046875 6.7734375 C13.38242234 13.7042155 18.20973985 21.73137973 23 30 C23.57621094 30.97324219 24.15242188 31.94648438 24.74609375 32.94921875 C29.06605442 41.13633968 29.43726392 49.96991505 27.30078125 58.93359375 C24.11628086 67.76151256 18.39627526 73.87903402 10 78 C1.68445171 81.34736054 -9.09895732 81.49520007 -17.5625 78.375 C-26.12705452 74.26516343 -31.62512954 67.99571169 -35.109375 59.19921875 C-37.56199792 50.38913906 -37.01396549 41.02394318 -32.734375 32.93359375 C-31.87585937 31.48146484 -31.87585937 31.48146484 -31 30 C-30.65646484 29.40074707 -30.31292969 28.80149414 -29.95898438 28.18408203 C-12.51824194 -2.0661176 -12.51824194 -2.0661176 0 0 Z M-5 22 C-6.71929717 24.13264736 -8.31068371 26.25743478 -9.875 28.5 C-10.32536621 29.14348389 -10.77573242 29.78696777 -11.23974609 30.44995117 C-18.4073034 40.75651211 -18.4073034 40.75651211 -19 53 C-16.63619663 57.81852225 -13.83763525 60.67076821 -9 63 C-4.00552411 63.7971639 -0.20270239 63.57907893 4.375 61.375 C8.48644582 57.65512045 11.18172454 54.4541877 11.625 48.8125 C11.13294093 39.0205245 3.1558809 29.16799645 -3 22 C-3.66 22 -4.32 22 -5 22 Z " fill="#000000" transform="translate(68,200)"/>
<path d="M0 0 C2.5 1.9375 2.5 1.9375 5 5 C5.57105469 5.58523437 6.14210938 6.17046875 6.73046875 6.7734375 C13.38242234 13.7042155 18.20973985 21.73137973 23 30 C23.57621094 30.97324219 24.15242188 31.94648437 24.74609375 32.94921875 C29.06605442 41.13633968 29.43726392 49.96991505 27.30078125 58.93359375 C24.11628086 67.76151256 18.39627526 73.87903402 10 78 C1.68445171 81.34736054 -9.09895732 81.49520007 -17.5625 78.375 C-26.12705452 74.26516343 -31.62512954 67.99571169 -35.109375 59.19921875 C-37.56199792 50.38913906 -37.01396549 41.02394318 -32.734375 32.93359375 C-31.87585938 31.48146484 -31.87585938 31.48146484 -31 30 C-30.65646484 29.40074707 -30.31292969 28.80149414 -29.95898438 28.18408203 C-12.51824194 -2.0661176 -12.51824194 -2.0661176 0 0 Z M-5 22 C-6.71929717 24.13264736 -8.31068371 26.25743478 -9.875 28.5 C-10.32536621 29.14348389 -10.77573242 29.78696777 -11.23974609 30.44995117 C-18.4073034 40.75651211 -18.4073034 40.75651211 -19 53 C-16.63619663 57.81852225 -13.83763525 60.67076821 -9 63 C-4.00552411 63.7971639 -0.20270239 63.57907893 4.375 61.375 C8.48644582 57.65512045 11.18172454 54.4541877 11.625 48.8125 C11.13294093 39.0205245 3.1558809 29.16799645 -3 22 C-3.66 22 -4.32 22 -5 22 Z " fill="#000000" transform="translate(404,80)"/>
<path d="M0 0 C2.5 1.9375 2.5 1.9375 5 5 C5.57105469 5.58523437 6.14210937 6.17046875 6.73046875 6.7734375 C13.38242234 13.7042155 18.20973985 21.73137973 23 30 C23.57621094 30.97324219 24.15242188 31.94648437 24.74609375 32.94921875 C29.06605442 41.13633968 29.43726392 49.96991505 27.30078125 58.93359375 C24.11628086 67.76151256 18.39627526 73.87903402 10 78 C1.68445171 81.34736054 -9.09895732 81.49520007 -17.5625 78.375 C-26.12705452 74.26516343 -31.62512954 67.99571169 -35.109375 59.19921875 C-37.56199792 50.38913906 -37.01396549 41.02394318 -32.734375 32.93359375 C-31.87585938 31.48146484 -31.87585938 31.48146484 -31 30 C-30.65646484 29.40074707 -30.31292969 28.80149414 -29.95898438 28.18408203 C-12.51824194 -2.0661176 -12.51824194 -2.0661176 0 0 Z M-5 22 C-6.71929717 24.13264736 -8.31068371 26.25743478 -9.875 28.5 C-10.32536621 29.14348389 -10.77573242 29.78696777 -11.23974609 30.44995117 C-18.4073034 40.75651211 -18.4073034 40.75651211 -19 53 C-16.63619663 57.81852225 -13.83763525 60.67076821 -9 63 C-4.00552411 63.7971639 -0.20270239 63.57907893 4.375 61.375 C8.48644582 57.65512045 11.18172454 54.4541877 11.625 48.8125 C11.13294093 39.0205245 3.1558809 29.16799645 -3 22 C-3.66 22 -4.32 22 -5 22 Z " fill="#000000" transform="translate(116,80)"/>
<path d="M0 0 C36.96 0 73.92 0 112 0 C112 5.28 112 10.56 112 16 C75.04 16 38.08 16 0 16 C0 10.72 0 5.44 0 0 Z " fill="#000000" transform="translate(216,464)"/>
<path d="M0 0 C5.28 0 10.56 0 16 0 C16 5.28 16 10.56 16 16 C10.72 16 5.44 16 0 16 C0 10.72 0 5.44 0 0 Z " fill="#000000" transform="translate(184,464)"/>
</svg>
